<?xml version="1.0" encoding="UTF-8" standalone="no"?>
<!DOCTYPE svg PUBLIC "-//W3C//DTD SVG 1.1//EN" "http://www.w3.org/Graphics/SVG/1.1/DTD/svg11.dtd">
<svg viewBox="0 0 1945 539" height="539.0pt" width="1945.0pt" xmlns="http://www.w3.org/2000/svg" version="1.1">
<path d="M 0.00 0.00 L 1945.00 0.00 L 1945.00 539.00 L 0.00 539.00 L 0.00 0.00 Z" fill="#ffffff" />
<path d="M 1325.59 90.28 C 1328.97 89.65 1332.58 89.94 1336.00 89.90 C 1385.67 89.92 1435.33 89.90 1485.00 89.91 C 1489.29 89.91 1493.44 89.77 1497.72 90.26 L 1498.08 91.37 C 1497.53 91.50 1496.98 91.63 1496.43 91.77 C 1489.56 100.81 1483.05 110.15 1476.20 119.21 C 1474.86 120.96 1473.98 122.72 1473.35 124.82 L 1472.74 123.54 C 1433.87 123.35 1394.88 123.55 1356.00 123.44 C 1354.11 123.43 1352.18 123.38 1350.30 123.58 C 1349.69 124.60 1349.31 125.80 1348.92 126.91 C 1345.79 136.85 1342.45 146.72 1339.23 156.63 C 1375.62 156.81 1412.03 156.70 1448.42 156.68 C 1448.58 157.14 1448.74 157.60 1448.90 158.05 C 1447.27 159.38 1445.73 160.76 1444.52 162.50 C 1437.79 171.85 1430.96 181.13 1424.19 190.45 C 1380.44 190.21 1336.66 190.45 1292.90 190.33 C 1293.50 188.20 1294.13 186.08 1294.83 183.98 C 1304.23 155.27 1313.61 126.55 1323.02 97.84 C 1323.84 95.33 1324.52 92.70 1325.59 90.28 Z" fill="#76a04a" />
<path d="M 1496.43 91.77 C 1496.98 91.63 1497.53 91.50 1498.08 91.37 C 1498.78 93.83 1499.52 96.28 1500.33 98.70 C 1517.13 149.87 1533.76 201.11 1550.63 252.25 C 1524.29 271.38 1497.84 290.36 1471.46 309.45 C 1469.22 311.15 1466.92 312.76 1464.48 314.18 C 1451.23 272.90 1437.38 231.75 1424.19 190.45 C 1430.96 181.13 1437.79 171.85 1444.52 162.50 C 1445.73 160.76 1447.27 159.38 1448.90 158.05 C 1460.15 192.00 1471.14 226.05 1482.31 260.02 C 1491.98 253.44 1501.29 246.34 1510.86 239.62 C 1498.53 201.31 1485.94 163.05 1473.35 124.82 C 1473.98 122.72 1474.86 120.96 1476.20 119.21 C 1483.05 110.15 1489.56 100.81 1496.43 91.77 Z" fill="#4d5e32" />
<path d="M 1350.30 123.58 C 1352.18 123.38 1354.11 123.43 1356.00 123.44 C 1394.88 123.55 1433.87 123.35 1472.74 123.54 L 1473.35 124.82 C 1485.94 163.05 1498.53 201.31 1510.86 239.62 C 1501.29 246.34 1491.98 253.44 1482.31 260.02 C 1471.14 226.05 1460.15 192.00 1448.90 158.05 C 1448.74 157.60 1448.58 157.14 1448.42 156.68 C 1412.03 156.70 1375.62 156.81 1339.23 156.63 C 1342.45 146.72 1345.79 136.85 1348.92 126.91 C 1349.31 125.80 1349.69 124.60 1350.30 123.58 Z" fill="#ffffff" />
<path d="M 887.67 196.21 C 895.48 196.17 903.30 196.18 911.11 196.23 C 911.13 258.82 911.11 321.41 911.12 384.00 C 911.14 388.45 911.16 392.91 911.01 397.36 C 904.58 397.35 898.14 397.34 891.70 397.34 C 890.96 391.19 890.44 384.99 889.41 378.88 C 880.42 387.50 870.55 394.62 858.54 398.39 C 848.75 401.51 837.84 401.20 827.92 398.86 C 815.06 395.70 803.51 387.89 796.28 376.73 C 786.92 362.68 784.18 346.59 783.67 330.00 C 783.76 314.54 786.99 299.39 795.18 286.14 C 804.06 271.73 818.49 261.00 835.18 257.64 C 846.65 255.34 858.92 256.41 869.53 261.47 C 876.58 264.68 882.37 269.25 888.40 274.00 C 888.70 264.96 887.49 256.03 887.65 247.00 C 887.65 230.07 887.62 213.14 887.67 196.21 Z" fill="#76a04a" />
<path d="M 557.99 256.87 C 573.23 258.28 587.69 264.73 598.95 275.07 C 600.14 276.26 600.17 276.82 599.25 278.22 C 595.94 282.67 592.45 287.01 588.96 291.32 C 584.11 287.97 579.77 284.19 574.43 281.59 C 564.88 276.63 554.17 274.71 543.50 276.19 C 531.60 277.55 520.31 282.22 511.86 290.86 C 503.92 298.68 499.42 309.03 497.88 319.97 C 496.39 331.36 497.58 343.02 502.44 353.50 C 505.83 360.45 510.58 366.62 516.87 371.17 C 527.27 378.97 541.19 382.11 554.01 381.40 C 568.85 380.30 582.04 373.65 593.30 364.19 C 596.91 369.09 600.20 374.21 603.71 379.19 C 588.49 392.87 568.57 400.99 548.00 400.66 C 528.32 400.66 507.71 394.62 493.37 380.63 C 482.49 370.36 476.06 356.46 473.94 341.75 C 471.99 327.20 473.10 311.67 479.19 298.16 C 484.19 286.69 492.55 276.84 502.99 269.96 C 518.83 259.30 539.13 255.18 557.99 256.87 Z" fill="#76a04a" />
<path d="M 731.34 269.69 C 744.90 279.69 753.59 294.80 756.81 311.23 C 760.48 329.53 758.53 350.00 749.55 366.56 C 742.22 380.25 729.82 390.91 715.25 396.24 C 702.88 400.95 688.99 401.80 676.03 399.33 C 661.96 396.64 648.84 389.41 639.34 378.65 C 628.67 366.83 622.94 350.76 622.14 334.98 C 620.95 320.51 623.51 305.17 630.15 292.17 C 635.91 280.62 645.45 270.94 656.74 264.74 C 679.82 252.31 710.22 253.89 731.34 269.69 Z" fill="#76a04a" />
<path d="M 1011.00 256.50 C 1022.66 256.49 1034.37 258.66 1044.66 264.33 C 1055.21 270.08 1063.60 279.46 1068.30 290.50 C 1074.19 304.03 1075.39 319.83 1073.37 334.33 C 1037.35 334.33 1001.32 334.29 965.29 334.35 C 965.47 346.58 970.44 359.16 979.36 367.65 C 987.45 375.70 998.78 380.26 1010.00 381.54 C 1017.94 381.91 1026.50 382.23 1034.24 380.25 C 1043.57 378.26 1052.05 374.25 1060.18 369.35 C 1062.98 374.43 1066.23 379.46 1068.18 384.94 C 1063.45 387.64 1058.79 390.41 1053.78 392.57 C 1038.01 399.62 1020.31 402.14 1003.19 399.86 C 986.91 397.86 970.85 390.47 959.51 378.49 C 948.89 367.39 942.61 352.24 941.40 337.00 C 941.17 328.40 940.75 319.27 942.97 310.98 C 946.91 292.66 958.58 276.29 974.67 266.69 C 985.60 260.10 998.24 256.53 1011.00 256.50 Z" fill="#76a04a" />
<path d="M 1350.00 258.33 C 1361.13 261.13 1371.27 267.64 1377.93 277.05 C 1385.89 287.92 1389.58 301.22 1390.83 314.49 C 1392.04 326.08 1391.48 337.79 1388.92 349.16 C 1385.35 363.96 1377.62 378.07 1365.59 387.64 C 1354.08 397.03 1338.80 401.83 1323.99 400.43 C 1310.39 398.91 1297.45 392.04 1287.19 383.19 C 1287.63 406.92 1287.74 431.19 1287.49 454.92 C 1286.29 455.51 1284.35 455.19 1283.00 455.29 C 1276.74 455.22 1270.49 455.28 1264.24 455.24 C 1264.26 390.10 1264.19 324.96 1264.27 259.82 C 1270.70 259.84 1277.12 259.76 1283.55 259.87 C 1284.48 265.85 1284.65 271.89 1285.78 277.85 C 1294.89 269.48 1305.34 262.82 1317.22 259.18 C 1327.86 255.79 1339.19 255.78 1350.00 258.33 Z" fill="#4d5e32" />
<path d="M 1105.26 259.84 C 1113.07 259.80 1120.88 259.81 1128.69 259.83 C 1128.76 285.89 1128.71 311.94 1128.72 338.00 C 1128.74 346.26 1128.87 355.36 1131.72 363.20 C 1134.25 370.52 1139.71 376.37 1147.18 378.69 C 1155.55 381.28 1165.80 381.28 1174.10 378.38 C 1186.25 374.25 1195.02 364.46 1203.50 355.33 C 1203.59 323.50 1203.46 291.66 1203.56 259.83 C 1211.31 259.80 1219.07 259.81 1226.82 259.82 C 1226.97 305.65 1226.83 351.49 1226.89 397.33 C 1220.48 397.32 1214.08 397.35 1207.68 397.31 C 1207.13 389.13 1206.69 380.79 1205.51 372.68 C 1197.73 380.92 1190.12 388.72 1179.93 394.03 C 1168.32 400.33 1154.95 401.92 1141.99 399.84 C 1132.79 398.48 1123.80 394.51 1117.52 387.49 C 1111.32 380.57 1108.15 371.84 1106.48 362.83 C 1105.11 355.99 1105.28 348.99 1105.21 342.00 C 1105.25 314.61 1105.16 287.23 1105.26 259.84 Z" fill="#4d5e32" />
<path d="M 1026.80 277.07 C 1034.04 279.38 1040.66 283.65 1044.98 290.00 C 1050.58 298.15 1052.48 307.75 1052.59 317.51 C 1023.45 317.57 994.30 317.53 965.16 317.53 C 966.56 302.30 975.88 287.70 989.46 280.47 C 1000.94 274.23 1014.38 273.39 1026.80 277.07 Z" fill="#ffffff" />
<path d="M 686.52 275.85 C 699.78 274.79 713.31 279.73 721.86 290.12 C 730.86 300.93 734.25 315.18 734.38 329.00 C 734.23 339.93 731.97 351.74 726.22 361.17 C 720.57 370.65 711.35 377.84 700.50 380.26 C 686.87 383.62 671.81 380.16 661.53 370.46 C 652.39 361.71 647.78 349.25 646.49 336.87 C 646.16 328.65 645.86 319.83 648.01 311.87 C 650.46 301.37 655.86 291.14 664.46 284.42 C 670.77 279.30 678.49 276.64 686.52 275.85 Z" fill="#ffffff" />
<path d="M 864.18 277.94 C 872.60 280.48 880.34 285.38 886.71 291.38 C 887.92 292.38 887.54 293.57 887.67 294.97 C 887.59 316.84 887.71 338.71 887.60 360.58 C 883.12 365.22 878.69 369.70 873.21 373.20 C 865.71 378.18 857.05 381.20 848.00 381.29 C 840.56 380.89 833.25 379.24 827.04 374.96 C 820.77 370.94 816.23 364.45 813.29 357.72 C 809.29 348.25 807.91 338.23 808.22 328.00 C 807.90 317.95 810.31 307.88 814.99 299.00 C 819.66 290.22 826.87 282.96 836.12 279.11 C 844.99 275.33 855.01 275.27 864.18 277.94 Z" fill="#ffffff" />
<path d="M 1321.47 276.70 C 1331.88 274.94 1343.96 276.83 1352.27 283.73 C 1359.22 289.41 1363.11 298.00 1365.13 306.57 C 1367.98 319.74 1368.05 333.76 1364.75 346.86 C 1362.28 356.31 1357.48 365.53 1349.97 371.94 C 1342.63 378.34 1332.67 381.53 1323.00 381.22 C 1309.70 380.01 1297.58 373.77 1287.61 365.10 C 1287.55 342.27 1287.64 319.45 1287.56 296.63 C 1297.08 287.48 1308.23 279.22 1321.47 276.70 Z" fill="#ffffff" /></svg>